<svg id="Layer_1" enable-background="new 0 0 512 512" height="512" viewBox="0 0 512 512" width="512" xmlns="http://www.w3.org/2000/svg"><g><path d="m411.4619 0h-310.8955c-55.4448 0-100.5522 45.1074-100.5522 100.5518v310.8965c0 55.4443 45.1074 100.5517 100.5522 100.5517h310.8955c55.4292 0 100.5239-45.1074 100.5239-100.5518v-310.8964c0-55.4444-45.0947-100.5518-100.5239-100.5518z" fill="#fdd835"/><path d="m256.0142 89.0054c-92.0967 0-167.0229 74.9136-167.0229 166.9946s74.9263 166.9941 167.0229 166.9941c92.0811 0 166.9946-74.9131 166.9946-166.9941s-74.9136-166.9946-166.9946-166.9946zm111.8711 78.0378c-13.5664 5.8442-30.2227 10.4919-48.8394 13.7078-2.8033-13.9424-6.4034-26.8989-10.7402-38.4668-3.2756-8.7379-6.9211-16.4717-10.8767-23.1555 28.1068 8.521 52.578 25.4775 70.4563 47.9145zm-157.8165 76.9568c.3689-12.514 1.3105-24.7012 2.7961-36.3475 13.8901 1.4661 28.3787 2.2391 43.1492 2.2391 14.7604 0 29.2395-.7725 43.1213-2.2375 1.4854 11.6462 2.4268 23.8329 2.7957 36.3459zm91.8624 24c-.3689 12.5237-1.311 24.72-2.7979 36.374-13.8813-1.4648-28.3596-2.2373-43.1191-2.2373-14.7697 0-29.2573.7729-43.1469 2.2389-1.4872-11.6543-2.4294-23.8511-2.7985-36.3756zm-75.7613-117.29c8.7217-23.2568 20.1577-37.7046 29.8442-37.7046 9.6743 0 21.1006 14.4468 29.8188 37.7036 3.7463 9.9929 6.8801 21.1951 9.3776 33.2598-12.578 1.2588-25.7343 1.9229-39.1964 1.9229-13.4722 0-26.6376-.6646-39.2236-1.9243 2.498-12.0646 5.6324-23.2657 9.3794-33.2574zm-11.594-31.5767c-3.9561 6.6824-7.6018 14.4143-10.8777 23.1499-4.3379 11.5671-7.939 24.5237-10.7429 38.4663-18.6162-3.2156-35.271-7.8621-48.8357-13.7048 17.8787-22.4336 42.3496-39.3889 70.4563-47.9114zm-83.9492 68.1414c16.0659 7.4038 36.0977 13.2126 58.4685 17.088-1.6367 12.7345-2.6689 26.028-3.0503 39.6373h-72.5455c1.7052-20.4192 7.7169-39.6317 17.1273-56.7253zm.012 137.4721c-9.4171-17.0991-15.4333-36.3191-17.1393-56.7468h72.5453c.3816 13.6198 1.4148 26.9225 3.053 39.6652-22.3661 3.8741-42.3942 9.681-58.459 17.0816zm13.498 20.2294c13.5625-5.8395 30.2124-10.4835 48.8219-13.6979 2.8035 13.9373 6.4034 26.8879 10.7396 38.4492 3.2744 8.7302 6.9183 16.458 10.8724 23.1372-28.0955-8.5205-52.5578-25.4669-70.4339-47.8885zm141.6968 16.3246c-8.7178 23.25-20.1436 37.6934-29.8193 37.6934-9.688 0-21.124-14.4434-29.8442-37.6943-3.7454-9.9858-6.8783-21.1809-9.3757-33.239 12.5851-1.2596 25.7493-1.9241 39.22-1.9241 13.4609 0 26.616.6641 39.193 1.9226-2.497 12.0585-5.6294 23.2544-9.3738 33.2414zm11.6003 31.5686c3.9539-6.6807 7.5975-14.4102 10.8718-23.1428 4.3351-11.5623 7.9342-24.5129 10.7369-38.4497 18.6101 3.2146 35.2614 7.86 48.8254 13.701-17.8756 22.4249-42.3382 39.3729-70.4341 47.8915zm83.9305-68.1216c-16.0667-7.4021-36.0956-13.2098-58.4614-17.0842 1.6379-12.7424 2.6709-26.0447 3.0524-39.6636h72.5455c-1.7056 20.4282-7.721 39.6486-17.1365 56.7478zm17.1364-80.7478h-72.5457c-.3813-13.6084-1.4133-26.9014-3.0498-39.6357 22.3706-3.8755 42.4033-9.6853 58.4709-17.0906 9.4089 17.0939 15.4198 36.3069 17.1246 56.7263z" fill="#fff"/></g></svg>